<svg xmlns="http://www.w3.org/2000/svg" viewBox="0 0 1280 640" width="1280" height="640">
  <defs>
    <!-- Background gradient — deep teal to near-black -->
    <linearGradient id="bg" x1="0" y1="0" x2="1" y2="1">
      <stop offset="0%" stop-color="#0a3d3f"/>
      <stop offset="50%" stop-color="#072e30"/>
      <stop offset="100%" stop-color="#051e1f"/>
    </linearGradient>
    <!-- Accent line gradient -->
    <linearGradient id="accent-line" x1="0" y1="0" x2="1" y2="0">
      <stop offset="0%" stop-color="#0d7377" stop-opacity="0"/>
      <stop offset="20%" stop-color="#0d7377"/>
      <stop offset="80%" stop-color="#2dd4bf"/>
      <stop offset="100%" stop-color="#2dd4bf" stop-opacity="0"/>
    </linearGradient>
    <!-- Logomark gradient -->
    <linearGradient id="logo-fill" x1="0" y1="0" x2="0" y2="1">
      <stop offset="0%" stop-color="#3ee0d0"/>
      <stop offset="100%" stop-color="#1aafab"/>
    </linearGradient>
    <!-- Subtle glow behind logo -->
    <radialGradient id="glow" cx="0.5" cy="0.5" r="0.5">
      <stop offset="0%" stop-color="#0d7377" stop-opacity="0.25"/>
      <stop offset="100%" stop-color="#0d7377" stop-opacity="0"/>
    </radialGradient>
    <!-- Stat card background -->
    <linearGradient id="card-bg" x1="0" y1="0" x2="0" y2="1">
      <stop offset="0%" stop-color="#ffffff" stop-opacity="0.08"/>
      <stop offset="100%" stop-color="#ffffff" stop-opacity="0.03"/>
    </linearGradient>
  </defs>

  <!-- ═══ Background ═══ -->
  <rect width="1280" height="640" fill="url(#bg)"/>

  <!-- Subtle grid pattern overlay -->
  <g opacity="0.03">
    <line x1="0" y1="160" x2="1280" y2="160" stroke="#ffffff" stroke-width="1"/>
    <line x1="0" y1="320" x2="1280" y2="320" stroke="#ffffff" stroke-width="1"/>
    <line x1="0" y1="480" x2="1280" y2="480" stroke="#ffffff" stroke-width="1"/>
    <line x1="320" y1="0" x2="320" y2="640" stroke="#ffffff" stroke-width="1"/>
    <line x1="640" y1="0" x2="640" y2="640" stroke="#ffffff" stroke-width="1"/>
    <line x1="960" y1="0" x2="960" y2="640" stroke="#ffffff" stroke-width="1"/>
  </g>

  <!-- Decorative accent line (horizontal divider) -->
  <rect x="80" y="355" width="1120" height="2" fill="url(#accent-line)" rx="1"/>

  <!-- ═══ Top Section: Logo + Title + Tagline ═══ -->

  <!-- Glow behind logo -->
  <circle cx="156" cy="200" r="120" fill="url(#glow)"/>

  <!-- Logomark (shield-leaf, scaled to ~100px) -->
  <g transform="translate(106, 140) scale(0.195)">
    <path d="M 256 28 C 364 64, 444 168, 444 272 C 444 376, 336 456, 256 488 C 176 456, 68 376, 68 272 C 68 168, 148 64, 256 28 Z" fill="url(#logo-fill)"/>
    <path d="M 256 28 C 364 64, 444 168, 444 272 C 444 376, 336 456, 256 488 C 176 456, 68 376, 68 272 C 68 168, 148 64, 256 28 Z" fill="url(#logo-fill)" opacity="0.3"/>
    <line x1="256" y1="84" x2="256" y2="440" stroke="#0f172a" stroke-width="3.5" opacity="0.25" stroke-linecap="round"/>
    <line x1="256" y1="176" x2="172" y2="236" stroke="#0f172a" stroke-width="2.5" opacity="0.18" stroke-linecap="round"/>
    <line x1="256" y1="176" x2="340" y2="236" stroke="#0f172a" stroke-width="2.5" opacity="0.18" stroke-linecap="round"/>
    <line x1="256" y1="256" x2="180" y2="312" stroke="#0f172a" stroke-width="2.5" opacity="0.18" stroke-linecap="round"/>
    <line x1="256" y1="256" x2="332" y2="312" stroke="#0f172a" stroke-width="2.5" opacity="0.18" stroke-linecap="round"/>
    <line x1="256" y1="336" x2="200" y2="380" stroke="#0f172a" stroke-width="2.5" opacity="0.18" stroke-linecap="round"/>
    <line x1="256" y1="336" x2="312" y2="380" stroke="#0f172a" stroke-width="2.5" opacity="0.18" stroke-linecap="round"/>
    <circle cx="256" cy="64" r="10" fill="#fbbf24" opacity="0.85"/>
  </g>

  <!-- Project name -->
  <text x="220" y="195" fill="#ffffff" font-family="system-ui, -apple-system, 'Segoe UI', sans-serif" font-size="52" font-weight="700" letter-spacing="-0.02em">Poland Food DB</text>

  <!-- Tagline -->
  <text x="220" y="240" fill="#2dd4bf" font-family="system-ui, -apple-system, 'Segoe UI', sans-serif" font-size="22" font-weight="500" letter-spacing="0.02em">Science-driven food quality intelligence</text>

  <!-- Brief description -->
  <text x="220" y="290" fill="#94a3b8" font-family="system-ui, -apple-system, 'Segoe UI', sans-serif" font-size="17" font-weight="400">
    <tspan>Multi-axis scoring engine analyzing nutrition, ingredients, additives,</tspan>
    <tspan x="220" dy="24">and food processing to help consumers make informed choices.</tspan>
  </text>

  <!-- ═══ Bottom Section: Stats + Tech Stack ═══ -->

  <!-- Stat cards row -->
  <!-- Card 1: Products -->
  <g transform="translate(80, 385)">
    <rect width="200" height="100" rx="10" fill="url(#card-bg)" stroke="#ffffff" stroke-opacity="0.06" stroke-width="1"/>
    <text x="100" y="42" text-anchor="middle" fill="#2dd4bf" font-family="system-ui, -apple-system, 'Segoe UI', sans-serif" font-size="34" font-weight="700">1,281</text>
    <text x="100" y="70" text-anchor="middle" fill="#94a3b8" font-family="system-ui, -apple-system, 'Segoe UI', sans-serif" font-size="14" font-weight="500" letter-spacing="0.05em">PRODUCTS</text>
  </g>

  <!-- Card 2: Categories -->
  <g transform="translate(300, 385)">
    <rect width="200" height="100" rx="10" fill="url(#card-bg)" stroke="#ffffff" stroke-opacity="0.06" stroke-width="1"/>
    <text x="100" y="42" text-anchor="middle" fill="#2dd4bf" font-family="system-ui, -apple-system, 'Segoe UI', sans-serif" font-size="34" font-weight="700">25</text>
    <text x="100" y="70" text-anchor="middle" fill="#94a3b8" font-family="system-ui, -apple-system, 'Segoe UI', sans-serif" font-size="14" font-weight="500" letter-spacing="0.05em">CATEGORIES</text>
  </g>

  <!-- Card 3: Countries -->
  <g transform="translate(520, 385)">
    <rect width="200" height="100" rx="10" fill="url(#card-bg)" stroke="#ffffff" stroke-opacity="0.06" stroke-width="1"/>
    <text x="100" y="42" text-anchor="middle" fill="#fbbf24" font-family="system-ui, -apple-system, 'Segoe UI', sans-serif" font-size="34" font-weight="700">PL + DE</text>
    <text x="100" y="70" text-anchor="middle" fill="#94a3b8" font-family="system-ui, -apple-system, 'Segoe UI', sans-serif" font-size="14" font-weight="500" letter-spacing="0.05em">COUNTRIES</text>
  </g>

  <!-- Card 4: Scoring -->
  <g transform="translate(740, 385)">
    <rect width="200" height="100" rx="10" fill="url(#card-bg)" stroke="#ffffff" stroke-opacity="0.06" stroke-width="1"/>
    <text x="100" y="42" text-anchor="middle" fill="#2dd4bf" font-family="system-ui, -apple-system, 'Segoe UI', sans-serif" font-size="34" font-weight="700">v3.2</text>
    <text x="100" y="70" text-anchor="middle" fill="#94a3b8" font-family="system-ui, -apple-system, 'Segoe UI', sans-serif" font-size="14" font-weight="500" letter-spacing="0.05em">SCORING ENGINE</text>
  </g>

  <!-- Card 5: QA -->
  <g transform="translate(960, 385)">
    <rect width="220" height="100" rx="10" fill="url(#card-bg)" stroke="#ffffff" stroke-opacity="0.06" stroke-width="1"/>
    <text x="110" y="42" text-anchor="middle" fill="#2dd4bf" font-family="system-ui, -apple-system, 'Segoe UI', sans-serif" font-size="34" font-weight="700">733</text>
    <text x="110" y="70" text-anchor="middle" fill="#94a3b8" font-family="system-ui, -apple-system, 'Segoe UI', sans-serif" font-size="14" font-weight="500" letter-spacing="0.05em">QA CHECKS</text>
  </g>

  <!-- Tech stack row -->
  <g transform="translate(80, 530)">
    <!-- Tech stack pills -->
    <rect x="0" y="0" width="120" height="32" rx="6" fill="#ffffff" fill-opacity="0.06"/>
    <text x="60" y="21" text-anchor="middle" fill="#cbd5e1" font-family="ui-monospace, 'SF Mono', 'Cascadia Code', monospace" font-size="13" font-weight="500">PostgreSQL</text>

    <rect x="132" y="0" width="100" height="32" rx="6" fill="#ffffff" fill-opacity="0.06"/>
    <text x="182" y="21" text-anchor="middle" fill="#cbd5e1" font-family="ui-monospace, 'SF Mono', 'Cascadia Code', monospace" font-size="13" font-weight="500">Supabase</text>

    <rect x="244" y="0" width="88" height="32" rx="6" fill="#ffffff" fill-opacity="0.06"/>
    <text x="288" y="21" text-anchor="middle" fill="#cbd5e1" font-family="ui-monospace, 'SF Mono', 'Cascadia Code', monospace" font-size="13" font-weight="500">Next.js</text>

    <rect x="344" y="0" width="110" height="32" rx="6" fill="#ffffff" fill-opacity="0.06"/>
    <text x="399" y="21" text-anchor="middle" fill="#cbd5e1" font-family="ui-monospace, 'SF Mono', 'Cascadia Code', monospace" font-size="13" font-weight="500">TypeScript</text>

    <rect x="466" y="0" width="88" height="32" rx="6" fill="#ffffff" fill-opacity="0.06"/>
    <text x="510" y="21" text-anchor="middle" fill="#cbd5e1" font-family="ui-monospace, 'SF Mono', 'Cascadia Code', monospace" font-size="13" font-weight="500">Python</text>

    <rect x="566" y="0" width="76" height="32" rx="6" fill="#ffffff" fill-opacity="0.06"/>
    <text x="604" y="21" text-anchor="middle" fill="#cbd5e1" font-family="ui-monospace, 'SF Mono', 'Cascadia Code', monospace" font-size="13" font-weight="500">pgTAP</text>
  </g>

  <!-- GitHub URL (bottom right) -->
  <text x="1200" y="598" text-anchor="end" fill="#64748b" font-family="ui-monospace, 'SF Mono', 'Cascadia Code', monospace" font-size="13" font-weight="400">github.com/ericsocrat/poland-food-db</text>

  <!-- Version badge (top right) -->
  <g transform="translate(1080, 50)">
    <rect width="120" height="30" rx="15" fill="#ffffff" fill-opacity="0.08" stroke="#2dd4bf" stroke-opacity="0.3" stroke-width="1"/>
    <text x="60" y="20" text-anchor="middle" fill="#2dd4bf" font-family="ui-monospace, 'SF Mono', 'Cascadia Code', monospace" font-size="12" font-weight="600">Open Source</text>
  </g>
</svg>
